<?xml version="1.0" encoding="UTF-8"?>
<svg id="Layer_2" data-name="Layer 2" xmlns="http://www.w3.org/2000/svg" viewBox="0 0 154.75 166.38">
  <defs>
    <style>
      .cls-1 {
        fill: #0d4e96;
      }

      .cls-1, .cls-2, .cls-3, .cls-4 {
        stroke-width: 0px;
      }

      .cls-3 {
        fill: #fff;
      }

      .cls-4 {
        fill: #f68e25;
      }
    </style>
  </defs>
  <g id="Layer_1-2" data-name="Layer 1">
    <g>
      <path class="cls-3" d="M154.75,166.38c0-55.46,0-110.92,0-166.38C103.17,0,51.58,0,0,0c0,55.46,0,110.92,0,166.38,51.58,0,103.17,0,154.75,0ZM25.43,107.63c0-17.2,0-34.39-.02-51.59,0-1.8.05-3.23,2.01-4.35,15.63-8.86,31.19-17.86,46.77-26.8.48-.28,1.04-.42,1.88-.75.11,1.15.25,2.02.26,2.9.01,17.43.06,34.86-.08,52.29-.01,1.43-.91,3.51-2.05,4.18-15.31,8.95-30.74,17.7-46.15,26.48-.67.38-1.43.6-2.44,1.02-.08-1.35-.18-2.36-.18-3.37ZM52.71,99.58c7.54-4.32,15.04-8.71,22.66-12.87,1.19-.65,3.31-.91,4.4-.29,15.97,8.96,31.84,18.11,47.73,27.22.28.16.5.43,1,.86-1.06.69-1.97,1.36-2.93,1.91-14.95,8.62-29.93,17.19-44.84,25.89-2.09,1.22-3.63,1.22-5.73,0-14.7-8.59-29.48-17.03-44.24-25.52-1.11-.64-2.19-1.31-3.92-2.35,9.02-5.17,17.44-10,25.87-14.82ZM126.14,109.21c-14.89-8.49-29.79-16.97-44.62-25.57-1.07-.62-2.25-2.18-2.26-3.32-.14-18.24-.1-36.49-.09-54.73,0-.43.14-.85.28-1.63,1.56.81,2.9,1.46,4.18,2.2,14.45,8.31,28.87,16.69,43.38,24.9,2.2,1.25,3.1,2.52,3.09,5.12-.13,18.12-.07,36.24-.07,55.03-1.66-.85-2.8-1.38-3.89-2Z"/>
      <path class="cls-4" d="M25.61,111c-.08-1.35-.18-2.36-.18-3.37,0-17.2,0-34.39-.02-51.59,0-1.8.05-3.23,2.01-4.35,15.63-8.86,31.19-17.86,46.77-26.8.48-.28,1.04-.42,1.88-.75.11,1.15.25,2.02.26,2.9.01,17.43.06,34.86-.08,52.29-.01,1.43-.91,3.51-2.05,4.18-15.31,8.95-30.74,17.7-46.15,26.48-.67.38-1.43.6-2.44,1.02Z"/>
      <path class="cls-1" d="M30.76,116.76c14.75,8.49,29.54,16.94,44.24,25.52,2.11,1.23,3.65,1.23,5.73,0,14.91-8.69,29.89-17.26,44.84-25.89.97-.56,1.87-1.22,2.93-1.91-.49-.43-.71-.7-1-.86-15.89-9.11-31.76-18.25-47.73-27.22-1.09-.61-3.21-.36-4.4.29-7.62,4.17-15.12,8.55-22.66,12.87-8.43,4.83-16.86,9.66-25.87,14.82,1.73,1.04,2.81,1.72,3.92,2.35ZM55,101.44c6.92-3.98,13.83-7.98,20.82-11.85.94-.52,2.59-.83,3.42-.36,14.51,8.19,28.95,16.52,43.82,25.06-1.1.75-1.87,1.37-2.72,1.86-13.45,7.71-26.89,15.44-40.39,23.05-1,.56-2.79.79-3.71.27-14.12-7.95-28.16-16.06-42.21-24.13-.29-.17-.54-.43-1.3-1.05,7.68-4.43,14.97-8.64,22.28-12.84Z"/>
      <path class="cls-2" d="M130.1,56.18c.02-2.61-.89-3.87-3.09-5.12-14.51-8.21-28.93-16.59-43.38-24.9-1.29-.74-2.63-1.38-4.18-2.2-.14.78-.28,1.21-.28,1.63-.01,18.24-.05,36.49.09,54.73,0,1.13,1.19,2.7,2.26,3.32,14.83,8.6,29.73,17.08,44.62,25.57,1.09.62,2.23,1.15,3.89,2,0-18.79-.06-36.91.07-55.03ZM95.16,36.13c9.98,5.71,19.97,11.4,29.87,17.24,1.07.63,2.23,2.22,2.24,3.37.14,16,.1,32.01.08,48.02,0,.43-.15.87-.28,1.56-.9-.41-1.65-.67-2.33-1.06-13.43-7.7-26.88-15.38-40.26-23.17-1.04-.61-2.35-1.96-2.36-2.97-.15-16.58-.1-33.15-.1-50.43,4.81,2.72,8.98,5.06,13.14,7.44Z"/>
      <path class="cls-3" d="M32.72,114.28c7.68-4.43,14.97-8.64,22.28-12.84,6.92-3.98,13.83-7.98,20.82-11.85.94-.52,2.59-.83,3.42-.36,14.51,8.19,28.95,16.52,43.82,25.06-1.1.75-1.87,1.37-2.72,1.86-13.45,7.71-26.89,15.44-40.39,23.05-1,.56-2.79.79-3.71.27-14.12-7.95-28.16-16.06-42.21-24.13-.29-.17-.54-.43-1.3-1.05Z"/>
      <path class="cls-3" d="M82.02,28.69c4.81,2.72,8.98,5.06,13.14,7.44,9.98,5.71,19.97,11.4,29.87,17.24,1.07.63,2.23,2.22,2.24,3.37.14,16,.1,32.01.08,48.02,0,.43-.15.87-.28,1.56-.9-.41-1.65-.67-2.33-1.06-13.43-7.7-26.88-15.38-40.26-23.17-1.04-.61-2.35-1.96-2.36-2.97-.15-16.58-.1-33.15-.1-50.43Z"/>
    </g>
  </g>
</svg>