<?xml version="1.0" encoding="UTF-8"?>
<svg id="Layer_2" data-name="Layer 2" xmlns="http://www.w3.org/2000/svg" viewBox="0 0 101.95 115.62">
  <defs>
    <style>
      .cls-1 {
        fill: #ff8f1c;
      }

      .cls-1, .cls-2, .cls-3 {
        stroke-width: 0px;
      }

      .cls-2 {
        fill: #004c97;
      }

      .cls-3 {
        fill: #fff;
      }
    </style>
  </defs>
  <g id="Layer_1-2" data-name="Layer 1">
    <g>
      <path class="cls-1" d="M.2,86.86c-.08-1.35-.18-2.36-.18-3.37C.01,66.29.03,49.1,0,31.9c0-1.8.05-3.23,2.01-4.35C17.64,18.69,33.2,9.7,48.79.75c.48-.28,1.04-.42,1.88-.75.11,1.15.25,2.02.26,2.9.01,17.43.06,34.86-.08,52.29-.01,1.43-.91,3.51-2.05,4.18-15.31,8.95-30.74,17.7-46.15,26.48-.67.38-1.43.6-2.44,1.02Z"/>
      <path class="cls-2" d="M7.31,90.14c7.68-4.43,14.97-8.64,22.28-12.84,6.92-3.98,13.83-7.98,20.82-11.85.94-.52,2.59-.83,3.42-.36,14.51,8.19,28.95,16.52,43.82,25.06-1.1.75-1.87,1.37-2.72,1.86-13.45,7.71-26.89,15.44-40.39,23.05-1,.56-2.79.79-3.71.27-14.12-7.95-28.16-16.06-42.21-24.13-.29-.17-.54-.43-1.3-1.05Z"/>
      <path class="cls-3" d="M56.61,4.56c4.81,2.72,8.98,5.06,13.14,7.44,9.98,5.71,19.97,11.4,29.87,17.24,1.07.63,2.23,2.22,2.24,3.37.14,16,.1,32.01.08,48.02,0,.43-.15.87-.28,1.56-.9-.41-1.65-.67-2.33-1.06-13.43-7.7-26.88-15.38-40.26-23.17-1.04-.61-2.35-1.96-2.36-2.97-.15-16.58-.1-33.15-.1-50.43Z"/>
    </g>
  </g>
</svg>